<?xml version="1.0" encoding="UTF-8" standalone="no"?>
<!DOCTYPE svg PUBLIC "-//W3C//DTD SVG 1.1//EN" "http://www.w3.org/Graphics/SVG/1.1/DTD/svg11.dtd">
<svg width="100%" height="100%" viewBox="0 0 3000 3000" version="1.1" xmlns="http://www.w3.org/2000/svg" xmlns:xlink="http://www.w3.org/1999/xlink" xml:space="preserve" xmlns:serif="http://www.serif.com/" style="fill-rule:evenodd;clip-rule:evenodd;stroke-linejoin:round;stroke-miterlimit:2;">
    <g>
        <g transform="matrix(2.98004,0,0,3.06849,-868.071,-1096.03)">
            <path d="M1297.99,495.675L1297.99,1196.38C1297.99,1272.81 1234.1,1334.87 1155.39,1334.87L433.892,1334.87C355.191,1334.87 291.295,1272.81 291.295,1196.38L291.295,495.675C291.295,419.242 355.191,357.187 433.892,357.187L1155.39,357.187C1234.1,357.187 1297.99,419.242 1297.99,495.675Z" style="fill:rgb(159,232,57);"/>
        </g>
        <g transform="matrix(2.82483,0,0,2.91781,-744.734,-968.544)">
            <path d="M1297.99,495.241L1297.99,1196.81C1297.99,1273.01 1234.1,1334.87 1155.39,1334.87L433.892,1334.87C355.191,1334.87 291.295,1273.01 291.295,1196.81L291.295,495.241C291.295,419.047 355.191,357.187 433.892,357.187L1155.39,357.187C1234.1,357.187 1297.99,419.047 1297.99,495.241Z" style="fill:url(#_Linear1);"/>
        </g>
        <g transform="matrix(0.848921,0,0,0.848921,226.618,22.6947)">
            <g>
                <g transform="matrix(1.2484,0,0,1.1503,-487.924,-295.078)">
                    <path d="M2246.96,2926.34L932.526,2926.34L1332.11,1821.56L1847.37,1821.56L2246.96,2926.34Z" style="fill:rgb(79,207,7);"/>
                </g>
                <g transform="matrix(0.950536,0,0,1.13704,-428.907,-223.657)">
                    <ellipse cx="2029.28" cy="1347.4" rx="970.716" ry="810.268" style="fill:rgb(79,207,7);"/>
                </g>
            </g>
            <g>
                <g transform="matrix(1.22238,0,0,1.13147,-281.841,-148.929)">
                    <ellipse cx="1162.36" cy="1142.13" rx="120.462" ry="127.837" style="fill:white;"/>
                </g>
                <g transform="matrix(1.22238,0,0,1.13147,440.342,-148.929)">
                    <ellipse cx="1162.36" cy="1142.13" rx="120.462" ry="127.837" style="fill:white;"/>
                </g>
                <g transform="matrix(1.39741,0,0,1.01056,-633.761,-217.098)">
                    <path d="M1254.02,1757.63L1331.27,1752.74C1337.29,1865.72 1423.11,1953.97 1526.94,1953.97C1630.77,1953.97 1716.59,1865.72 1722.61,1752.74L1799.85,1757.63C1791.45,1915.21 1671.76,2038.31 1526.94,2038.31C1382.12,2038.31 1262.43,1915.21 1254.02,1757.63Z" style="fill:white;"/>
                </g>
            </g>
        </g>
        <g transform="matrix(1,0,0,1,0,-31)">
            <g transform="matrix(1,0,0,1,-3.11776,26.8822)">
                <g transform="matrix(1.24845,-0.367516,0.330087,1.0993,-812.944,146.553)">
                    <path d="M956.325,911.704C874.313,1028.46 807.729,1204.26 807.729,1393.73C807.729,1583.21 874.313,1759 956.325,1875.76C659.089,1874.25 417.772,1658.78 417.772,1393.73C417.772,1128.69 659.089,913.218 956.325,911.704Z" style="fill:rgb(159,232,57);"/>
                </g>
                <g transform="matrix(1.39438,0,0,1.12627,-109.614,-269.152)">
                    <path d="M634.917,2408.87L215.117,2408.87L399.548,1814.86L634.917,1814.86L634.917,2408.87Z" style="fill:rgb(159,232,57);"/>
                </g>
                <g transform="matrix(0.682572,0.257372,-0.378356,0.987373,1253.73,-97.971)">
                    <rect x="215.117" y="1814.86" width="419.8" height="594.011" style="fill:rgb(159,232,57);"/>
                </g>
            </g>
            <g transform="matrix(-1,0,0,1,3003.12,26.8822)">
                <g transform="matrix(1.24845,-0.367516,0.330087,1.0993,-812.944,146.553)">
                    <path d="M956.325,911.704C874.313,1028.46 807.729,1204.26 807.729,1393.73C807.729,1583.21 874.313,1759 956.325,1875.76C659.089,1874.25 417.772,1658.78 417.772,1393.73C417.772,1128.69 659.089,913.218 956.325,911.704Z" style="fill:rgb(159,232,57);"/>
                </g>
                <g transform="matrix(1.39438,0,0,1.12627,-109.614,-269.152)">
                    <path d="M634.917,2408.87L215.117,2408.87L399.548,1814.86L634.917,1814.86L634.917,2408.87Z" style="fill:rgb(159,232,57);"/>
                </g>
                <g transform="matrix(0.682572,0.257372,-0.378356,0.987373,1253.73,-97.971)">
                    <rect x="215.117" y="1814.86" width="419.8" height="594.011" style="fill:rgb(159,232,57);"/>
                </g>
            </g>
        </g>
    </g>
    <defs>
        <linearGradient id="_Linear1" x1="0" y1="0" x2="1" y2="0" gradientUnits="userSpaceOnUse" gradientTransform="matrix(-1.41285e-13,-850.574,878.569,-1.36783e-13,794.643,1268.09)"><stop offset="0" style="stop-color:white;stop-opacity:1"/><stop offset="1" style="stop-color:white;stop-opacity:1"/></linearGradient>
    </defs>
</svg>
