<?xml version="1.0" encoding="UTF-8" standalone="no"?>
<!DOCTYPE svg PUBLIC "-//W3C//DTD SVG 1.1//EN" "http://www.w3.org/Graphics/SVG/1.1/DTD/svg11.dtd">
<svg width="100%" height="100%" viewBox="0 0 3000 3000" version="1.1" xmlns="http://www.w3.org/2000/svg" xmlns:xlink="http://www.w3.org/1999/xlink" xml:space="preserve" xmlns:serif="http://www.serif.com/" style="fill-rule:evenodd;clip-rule:evenodd;stroke-linecap:round;stroke-linejoin:round;stroke-miterlimit:1.5;">
    <g>
        <g transform="matrix(2.98004,0,0,3.06849,-868.071,-1096.03)">
            <path d="M1297.99,495.675L1297.99,1196.38C1297.99,1272.81 1234.1,1334.87 1155.39,1334.87L433.892,1334.87C355.191,1334.87 291.295,1272.81 291.295,1196.38L291.295,495.675C291.295,419.242 355.191,357.187 433.892,357.187L1155.39,357.187C1234.1,357.187 1297.99,419.242 1297.99,495.675Z" style="fill:rgb(222,71,144);"/>
        </g>
        <g transform="matrix(2.82483,0,0,2.91781,-744.734,-968.544)">
            <path d="M1297.99,495.241L1297.99,1196.81C1297.99,1273.01 1234.1,1334.87 1155.39,1334.87L433.892,1334.87C355.191,1334.87 291.295,1273.01 291.295,1196.81L291.295,495.241C291.295,419.047 355.191,357.187 433.892,357.187L1155.39,357.187C1234.1,357.187 1297.99,419.047 1297.99,495.241Z" style="fill:url(#_Linear1);"/>
        </g>
        <g>
            <g transform="matrix(1.08378,0,0,1.10514,-115.745,-280.718)">
                <path d="M1307.41,1308.44C1238.47,1452.94 1182.49,1662.18 1182.49,1886.43C1182.49,2110.69 1238.47,2319.93 1307.41,2464.43C1031.63,2464.43 807.739,2205.44 807.739,1886.43C807.739,1567.43 1031.63,1308.44 1307.41,1308.44Z" style="fill:white;stroke:white;stroke-width:4.57px;"/>
            </g>
            <g transform="matrix(-1.3852,1.69639e-16,-1.36278e-16,-1.1128,3364.57,4071.32)">
                <path d="M1307.41,1308.44C1187.58,1417.39 1090.29,1638.87 1090.29,1886.43C1090.29,2134 1187.58,2355.48 1307.41,2464.43C1031.63,2464.43 807.739,2205.44 807.739,1886.43C807.739,1567.43 1031.63,1308.44 1307.41,1308.44Z" style="fill:white;stroke:white;stroke-width:3.98px;"/>
            </g>
            <g transform="matrix(-0.804854,0.193278,-0.275007,-1.14519,3547.61,3549.84)">
                <path d="M1307.41,1308.44C1188.2,1417.82 1091.41,1639.15 1091.41,1886.43C1091.41,2133.72 1188.2,2355.05 1307.41,2464.43C1150.24,2381.57 1022.65,2151.1 1022.65,1886.43C1022.65,1621.77 1150.24,1391.3 1307.41,1308.44Z" style="fill:white;stroke:white;stroke-width:4.91px;"/>
            </g>
            <g transform="matrix(-1.0067,0.951501,-0.764383,-0.808724,4119.06,2245.57)">
                <path d="M1307.41,1308.44C1136.55,1381.74 997.838,1615.5 997.838,1886.43C997.838,2157.38 1136.55,2391.13 1307.41,2464.43C1031.63,2464.43 807.739,2205.44 807.739,1886.43C807.739,1567.43 1031.63,1308.44 1307.41,1308.44Z" style="fill:white;stroke:white;stroke-width:3.98px;"/>
            </g>
            <g transform="matrix(-0.543588,-0.26733,0.491087,-0.998573,927.685,3188.89)">
                <path d="M1307.41,1308.44C1221.64,1441.18 1152,1654.48 1152,1886.43C1152,2118.39 1221.64,2331.69 1307.41,2464.43C1124.99,2399.21 976.892,2162.67 976.892,1886.43C976.892,1610.2 1124.99,1373.66 1307.41,1308.44Z" style="fill:white;stroke:white;stroke-width:5.58px;"/>
            </g>
            <g transform="matrix(-0.792652,0.0649794,-0.19112,-2.33138,2934.57,6039.04)">
                <clipPath id="_clip2">
                    <rect x="807.739" y="1928.37" width="999.342" height="536.067"/>
                </clipPath>
                <g clip-path="url(#_clip2)">
                    <path d="M1307.41,1308.44C1206.14,1430.35 1123.93,1647.38 1123.93,1886.43C1123.93,2125.49 1206.14,2342.51 1307.41,2464.43C1127.92,2397.16 982.194,2161.33 982.194,1886.43C982.194,1611.54 1127.92,1375.7 1307.41,1308.44Z" style="fill:white;stroke:white;stroke-width:2.86px;"/>
                </g>
            </g>
            <g transform="matrix(0.609027,0.932201,-0.93466,0.610634,3012.97,-653.408)">
                <clipPath id="_clip3">
                    <rect x="807.739" y="2024.46" width="999.342" height="439.969"/>
                </clipPath>
                <g clip-path="url(#_clip3)">
                    <path d="M1307.41,1308.44C1181.43,1413.09 1079.16,1636.06 1079.16,1886.43C1079.16,2136.81 1181.43,2359.78 1307.41,2464.43C1129.98,2395.73 985.923,2160.39 985.923,1886.43C985.923,1612.48 1129.98,1377.14 1307.41,1308.44Z" style="fill:white;stroke:white;stroke-width:4.48px;"/>
                </g>
            </g>
            <g transform="matrix(-0.539016,0.974358,-0.976928,-0.540438,3488.76,1503.5)">
                <clipPath id="_clip4">
                    <rect x="807.739" y="1308.44" width="999.342" height="530.209"/>
                </clipPath>
                <g clip-path="url(#_clip4)">
                    <path d="M1307.41,1308.44C1192.99,1421.16 1100.09,1641.35 1100.09,1886.43C1100.09,2131.52 1192.99,2351.7 1307.41,2464.43C1141.39,2387.75 1006.61,2155.16 1006.61,1886.43C1006.61,1617.71 1141.39,1385.12 1307.41,1308.44Z" style="fill:white;stroke:white;stroke-width:4.48px;"/>
                </g>
            </g>
            <g transform="matrix(-0.569876,-0.209924,0.307806,-0.835593,1803.87,3313.9)">
                <clipPath id="_clip5">
                    <rect x="807.739" y="1769.93" width="999.342" height="694.507"/>
                </clipPath>
                <g clip-path="url(#_clip5)">
                    <path d="M1307.41,1308.44C1238.47,1452.94 1182.49,1662.18 1182.49,1886.43C1182.49,2110.69 1238.47,2319.93 1307.41,2464.43C1031.63,2464.43 807.739,2205.44 807.739,1886.43C807.739,1567.43 1031.63,1308.44 1307.41,1308.44Z" style="fill:white;stroke:white;stroke-width:6.56px;"/>
                </g>
            </g>
            <g transform="matrix(1.04579,-0.00604667,0.00671537,1.16144,-207.295,-328.669)">
                <path d="M1585.24,665.593L1817.6,1443.46L1352.88,1443.46L1585.24,665.593Z" style="fill:white;stroke:white;stroke-width:4.52px;"/>
            </g>
            <g transform="matrix(-0.965973,0.0855785,-0.102051,-1.15191,3095.93,2620.66)">
                <path d="M1585.24,665.593L1817.6,1443.46L1352.88,1443.46L1585.24,665.593Z" style="fill:white;stroke:white;stroke-width:4.69px;"/>
            </g>
            <g transform="matrix(0.580689,-0.776678,0.713196,0.533226,-338.531,2195.84)">
                <path d="M1526.21,665.593L1817.6,1443.46L1352.88,1443.46L1526.21,665.593Z" style="fill:white;stroke:white;stroke-width:5.37px;"/>
            </g>
            <g transform="matrix(-0.732099,0.635971,-0.452465,-0.520856,3680.68,1101.7)">
                <path d="M1585.24,665.593L1817.6,1443.46L1352.88,1443.46L1585.24,665.593Z" style="fill:white;stroke:white;stroke-width:5.94px;"/>
            </g>
            <g transform="matrix(0.465707,-0.0787387,0.0500201,0.295848,1165.83,1029.23)">
                <path d="M1585.24,665.593L1817.6,1443.46L1352.88,1443.46L1585.24,665.593Z" style="fill:white;stroke:white;stroke-width:12.64px;"/>
            </g>
            <g transform="matrix(0.0699116,1.08153,-0.305436,0.0197439,2164.87,565.702)">
                <path d="M1307.41,1308.44C1205.21,1429.7 1122.24,1646.95 1122.24,1886.43C1122.24,2125.92 1205.21,2343.17 1307.41,2464.43C1031.63,2464.43 807.739,2205.44 807.739,1886.43C807.739,1567.43 1031.63,1308.44 1307.41,1308.44Z" style="fill:white;stroke:white;stroke-width:6.28px;"/>
            </g>
            <g transform="matrix(0.0699116,1.08153,-0.301888,0.0195145,2156.13,566.267)">
                <path d="M1307.41,1308.44C1205.21,1429.7 1122.24,1646.95 1122.24,1886.43C1122.24,2125.92 1205.21,2343.17 1307.41,2464.43C1031.63,2464.43 807.739,2205.44 807.739,1886.43C807.739,1567.43 1031.63,1308.44 1307.41,1308.44Z" style="fill:white;stroke:white;stroke-width:6.28px;"/>
            </g>
            <g transform="matrix(0.301946,1.04087,-0.285695,0.0828768,1479.05,536.889)">
                <path d="M1307.41,1308.44C1164.84,1401.5 1049.08,1628.45 1049.08,1886.43C1049.08,2144.42 1164.84,2371.37 1307.41,2464.43C1031.63,2464.43 807.739,2205.44 807.739,1886.43C807.739,1567.43 1031.63,1308.44 1307.41,1308.44Z" style="fill:white;stroke:white;stroke-width:6.29px;"/>
            </g>
            <g transform="matrix(-0.821007,0.0188307,-0.020819,-0.907696,2784.1,3919.93)">
                <path d="M1504.46,2068.66L1505.09,2073.57L1503.83,2073.57L1504.46,2068.66Z" style="fill:white;stroke:white;stroke-width:5.78px;"/>
            </g>
        </g>
    </g>
    <defs>
        <linearGradient id="_Linear1" x1="0" y1="0" x2="1" y2="0" gradientUnits="userSpaceOnUse" gradientTransform="matrix(-1.41285e-13,-850.574,878.569,-1.36783e-13,794.643,1268.09)"><stop offset="0" style="stop-color:rgb(248,95,159);stop-opacity:1"/><stop offset="1" style="stop-color:rgb(250,140,176);stop-opacity:1"/></linearGradient>
    </defs>
</svg>
