<?xml version="1.0" encoding="UTF-8" standalone="no"?>
<!DOCTYPE svg PUBLIC "-//W3C//DTD SVG 1.1//EN" "http://www.w3.org/Graphics/SVG/1.1/DTD/svg11.dtd">
<svg width="100%" height="100%" viewBox="0 0 3000 3000" version="1.1" xmlns="http://www.w3.org/2000/svg" xmlns:xlink="http://www.w3.org/1999/xlink" xml:space="preserve" xmlns:serif="http://www.serif.com/" style="fill-rule:evenodd;clip-rule:evenodd;stroke-linecap:round;stroke-linejoin:round;stroke-miterlimit:1.5;">
    <g>
        <g transform="matrix(2.98004,0,0,3.06849,-868.071,-1096.03)">
            <path d="M1297.99,495.675L1297.99,1196.38C1297.99,1272.81 1234.1,1334.87 1155.39,1334.87L433.892,1334.87C355.191,1334.87 291.295,1272.81 291.295,1196.38L291.295,495.675C291.295,419.242 355.191,357.187 433.892,357.187L1155.39,357.187C1234.1,357.187 1297.99,419.242 1297.99,495.675Z" style="fill:rgb(236,139,35);"/>
        </g>
        <g transform="matrix(2.82483,0,0,2.91781,-744.734,-968.544)">
            <path d="M1297.99,495.241L1297.99,1196.81C1297.99,1273.01 1234.1,1334.87 1155.39,1334.87L433.892,1334.87C355.191,1334.87 291.295,1273.01 291.295,1196.81L291.295,495.241C291.295,419.047 355.191,357.187 433.892,357.187L1155.39,357.187C1234.1,357.187 1297.99,419.047 1297.99,495.241Z" style="fill:url(#_Linear1);"/>
        </g>
        <g>
            <g transform="matrix(1.13393,0,0,1.33844,-185.633,-827.162)">
                <path d="M2386.38,2145.02L2386.38,2270.82C2386.38,2379.21 2282.5,2467.21 2154.57,2467.21L1746.97,2467.21C1619.03,2467.21 1515.16,2379.21 1515.16,2270.82L1515.16,2145.02C1515.16,2036.63 1619.03,1948.63 1746.97,1948.63L2154.57,1948.63C2282.5,1948.63 2386.38,2036.63 2386.38,2145.02Z" style="fill:white;stroke:white;stroke-width:4.03px;"/>
            </g>
            <g transform="matrix(1.70227,0,0,0.43177,-2101.2,1409.78)">
                <path d="M2386.38,2207.92C2386.38,2351.03 2356.91,2467.21 2320.61,2467.21L1580.93,2467.21C1544.63,2467.21 1515.16,2351.03 1515.16,2207.92C1515.16,2064.82 1544.63,1948.63 1580.93,1948.63L2320.61,1948.63C2356.91,1948.63 2386.38,2064.82 2386.38,2207.92Z" style="fill:white;stroke:white;stroke-width:4.03px;"/>
            </g>
            <g transform="matrix(1.06032,0,0,0.215885,-1128.54,1830.46)">
                <rect x="1515.16" y="1948.63" width="871.215" height="518.58" style="fill:white;stroke:white;stroke-width:6.53px;"/>
            </g>
            <g transform="matrix(1.35943,0,0,1.25429,-345.354,-599.305)">
                <ellipse cx="1696.6" cy="2073.61" rx="411.407" ry="375.107" style="fill:white;stroke:white;stroke-width:3.82px;"/>
            </g>
            <g transform="matrix(0.982495,-0.253823,0.218087,0.844168,-669.401,-531.272)">
                <ellipse cx="1696.6" cy="2073.61" rx="411.407" ry="375.107" style="fill:white;stroke:white;stroke-width:5.29px;"/>
            </g>
            <g transform="matrix(0.597568,-0.722923,0.450273,0.372195,-727.99,1275.31)">
                <ellipse cx="1696.6" cy="2073.61" rx="411.407" ry="375.107" style="fill:white;stroke:white;stroke-width:6.4px;"/>
            </g>
            <g transform="matrix(1.29599,0,0,1.706,-687.27,-1824.06)">
                <path d="M1471.31,2388.75L899.146,2388.75L1130.67,1780.96L1471.31,1780.96L1471.31,2388.75Z" style="fill:white;stroke:white;stroke-width:3.3px;"/>
            </g>
            <g transform="matrix(0.771567,0,0,0.27244,84.3209,563.458)">
                <path d="M1471.31,2388.75L899.146,2388.75L966.948,1780.96L1310.73,1780.96L1471.31,2388.75Z" style="fill:white;stroke:white;stroke-width:8.64px;"/>
            </g>
            <g transform="matrix(0.680124,0,0,0.406475,218.862,77.6951)">
                <path d="M1471.31,2388.75L899.146,2388.75L1059.73,1780.96L1310.73,1780.96L1471.31,2388.75Z" style="fill:white;stroke:white;stroke-width:8.92px;"/>
            </g>
            <g transform="matrix(0.680124,0,0,0.330755,328.082,11.5199)">
                <path d="M1471.31,2388.75L899.146,2388.75L1185.23,1780.96L1310.73,1780.96L1471.31,2388.75Z" style="fill:white;stroke:white;stroke-width:9.35px;"/>
            </g>
            <g transform="matrix(-0.318512,0,0,0.546372,1688.17,945.992)">
                <path d="M1471.31,2388.75L899.146,2388.75L1110.43,1780.96L1471.31,1780.96L1471.31,2388.75Z" style="fill:white;stroke:white;stroke-width:11.18px;"/>
            </g>
        </g>
    </g>
    <defs>
        <linearGradient id="_Linear1" x1="0" y1="0" x2="1" y2="0" gradientUnits="userSpaceOnUse" gradientTransform="matrix(-1.41285e-13,-850.574,878.569,-1.36783e-13,794.643,1268.09)"><stop offset="0" style="stop-color:rgb(249,157,32);stop-opacity:1"/><stop offset="1" style="stop-color:rgb(250,181,24);stop-opacity:1"/></linearGradient>
    </defs>
</svg>
