<?xml version="1.0" encoding="UTF-8" standalone="no"?>
<!DOCTYPE svg PUBLIC "-//W3C//DTD SVG 1.1//EN" "http://www.w3.org/Graphics/SVG/1.1/DTD/svg11.dtd">
<svg width="100%" height="100%" viewBox="0 0 3000 3000" version="1.1" xmlns="http://www.w3.org/2000/svg" xmlns:xlink="http://www.w3.org/1999/xlink" xml:space="preserve" xmlns:serif="http://www.serif.com/" style="fill-rule:evenodd;clip-rule:evenodd;stroke-linecap:round;stroke-linejoin:round;stroke-miterlimit:1.5;">
    <g>
        <g transform="matrix(2.98004,0,0,3.06849,-868.071,-1096.03)">
            <path d="M1297.99,495.675L1297.99,1196.38C1297.99,1272.81 1234.1,1334.87 1155.39,1334.87L433.892,1334.87C355.191,1334.87 291.295,1272.81 291.295,1196.38L291.295,495.675C291.295,419.242 355.191,357.187 433.892,357.187L1155.39,357.187C1234.1,357.187 1297.99,419.242 1297.99,495.675Z" style="fill:rgb(52,167,125);"/>
        </g>
        <g transform="matrix(2.82483,0,0,2.91781,-744.734,-968.544)">
            <path d="M1297.99,495.241L1297.99,1196.81C1297.99,1273.01 1234.1,1334.87 1155.39,1334.87L433.892,1334.87C355.191,1334.87 291.295,1273.01 291.295,1196.81L291.295,495.241C291.295,419.047 355.191,357.187 433.892,357.187L1155.39,357.187C1234.1,357.187 1297.99,419.047 1297.99,495.241Z" style="fill:url(#_Linear1);"/>
        </g>
        <g>
            <g transform="matrix(0.847752,0,0,2.93891,536.447,-593.966)">
                <path d="M1129.35,430.215C1548.84,430.215 2387.83,540.013 2387.83,583.281C2387.83,626.549 1548.84,689.824 1129.35,689.824C709.854,689.824 -129.135,626.549 -129.135,583.281C-129.135,540.013 709.854,430.215 1129.35,430.215Z" style="fill:white;stroke:white;stroke-width:2.31px;"/>
            </g>
            <g transform="matrix(-0.980294,-1.20051e-16,1.17566e-16,-0.96,4137.79,2908.58)">
                <path d="M2154.49,1723.53L1998.55,1723.53L2014.37,1262.58L2138.68,1262.58L2154.49,1723.53Z" style="fill:white;stroke:white;stroke-width:5.15px;"/>
            </g>
            <g transform="matrix(1.07297,-0.16844,0.179987,1.14653,-155.454,294.986)">
                <path d="M2247.13,1277.56L2247.13,1713.93C2247.13,1730.99 2232.33,1744.83 2214.12,1744.83L2148.09,1744.83C2129.87,1744.83 2115.08,1730.99 2115.08,1713.93L2115.08,1277.56C2115.08,1260.51 2129.87,1246.66 2148.09,1246.66L2214.12,1246.66C2232.33,1246.66 2247.13,1260.51 2247.13,1277.56Z" style="fill:white;stroke:white;stroke-width:4.45px;"/>
            </g>
            <g transform="matrix(1,0,0,0.997712,0,5.66874)">
                <path d="M2070.82,1796.42C2099.42,1788.27 2144.53,1787.42 2179.37,1796.42C2223.35,1807.78 2292.24,1873.28 2306.01,1934.1C2327.11,2027.32 2325.67,2349.84 2325.67,2349.84L2179.37,2477.68L1928.07,2438.05C1928.07,2438.05 1904.28,2070.16 1928.07,1963.22C1943.96,1891.79 2022.48,1810.2 2070.82,1796.42Z" style="fill:white;stroke:white;stroke-width:5.01px;"/>
            </g>
            <path d="M690.418,1433.36C803.396,1439.68 1011.46,1523.56 1175.32,1539.88C1372.52,1559.53 1749.05,1533.13 1873.6,1551.22C1912.23,1556.84 1910.18,1622.3 1917.5,1659.79C1924.81,1697.27 1943.18,1747.07 1917.5,1776.12C1890.27,1806.92 1798.15,1841.74 1769.52,1857.01C1766.79,1858.47 1747.05,1864.12 1747.05,1870.74C1747.05,1943.32 1740.73,2211.86 1725.28,2289.43C1718.31,2324.38 1667.54,2335.95 1632.54,2342.64C1586.15,2351.5 1507.14,2356.82 1446.92,2342.64C1274.19,2301.96 840.231,2224.67 630.444,2121.39C619.206,2115.86 594.65,2083.01 596.148,2059.46C602.997,1951.77 659.785,1578.96 671.538,1475.25C673.502,1457.92 672.939,1432.38 690.418,1433.36Z" style="fill:white;stroke:white;stroke-width:5px;"/>
        </g>
    </g>
    <defs>
        <linearGradient id="_Linear1" x1="0" y1="0" x2="1" y2="0" gradientUnits="userSpaceOnUse" gradientTransform="matrix(-1.41285e-13,-850.574,878.569,-1.36783e-13,794.643,1268.09)"><stop offset="0" style="stop-color:rgb(50,193,128);stop-opacity:1"/><stop offset="1" style="stop-color:rgb(64,213,158);stop-opacity:1"/></linearGradient>
    </defs>
</svg>
