<?xml version="1.0" encoding="UTF-8" standalone="no"?>
<!DOCTYPE svg PUBLIC "-//W3C//DTD SVG 1.1//EN" "http://www.w3.org/Graphics/SVG/1.1/DTD/svg11.dtd">
<svg width="100%" height="100%" viewBox="0 0 1554 1963" version="1.1" xmlns="http://www.w3.org/2000/svg" xmlns:xlink="http://www.w3.org/1999/xlink" xml:space="preserve" xmlns:serif="http://www.serif.com/" style="fill-rule:evenodd;clip-rule:evenodd;stroke-linecap:round;stroke-linejoin:round;stroke-miterlimit:1.5;">
    <g transform="matrix(1,0,0,1,-223.168385,-18.646191)">
        <g transform="matrix(0.596304,0.092685,-0.12682,0.815914,553.418282,179.160526)">
            <path d="M2061.298,59.123L2061.298,1823.065C2061.298,1920.718 1952.818,2000 1819.201,2000L174.188,2000C40.571,2000 -67.909,1920.718 -67.909,1823.065L-67.909,59.123C-67.909,-38.53 40.571,-117.812 174.188,-117.812L1819.201,-117.812C1952.818,-117.812 2061.298,-38.53 2061.298,59.123Z" style="fill:rgb(138,54,43);"/>
        </g>
        <g transform="matrix(0.812834,-0.582495,0.763555,1.06549,-1246.085048,8.970065)">
            <path d="M428.327,1706.921L428.327,1778.291C428.327,1811.516 392.968,1838.491 349.415,1838.491L316.627,1838.491C273.074,1838.491 237.714,1811.516 237.714,1778.291L237.714,1706.921C237.714,1673.696 273.074,1646.721 316.627,1646.721L349.415,1646.721C392.968,1646.721 428.327,1673.696 428.327,1706.921Z" style="fill:rgb(138,54,43);"/>
        </g>
        <g transform="matrix(0.863976,0.134291,-0.134291,0.863976,241.912614,-37.658977)">
            <g transform="matrix(0.690185,0,0,0.944371,312.096015,111.2578)">
                <path d="M2061.298,59.123L2061.298,1823.065C2061.298,1920.718 1952.818,2000 1819.201,2000L174.188,2000C40.571,2000 -67.909,1920.718 -67.909,1823.065L-67.909,59.123C-67.909,-38.53 40.571,-117.812 174.188,-117.812L1819.201,-117.812C1952.818,-117.812 2061.298,-38.53 2061.298,59.123Z" style="fill:rgb(177,69,55);"/>
            </g>
        </g>
        <g transform="matrix(0.863976,0.134291,-0.134291,0.863976,241.912614,-37.658977)">
            <g transform="matrix(1.033742,0,0,1.033742,-183.206855,-229.209725)">
                <path d="M742.271,754.251C745.682,748.014 751.635,743.567 758.583,742.068C765.531,740.568 772.788,742.164 778.467,746.439C819.729,777.47 909.623,845.148 940.393,868.313C946.131,872.633 947.947,880.444 944.703,886.852C917.072,942.754 902.234,1104.512 902.234,1153.491C902.234,1287.249 1010.829,1395.843 1144.586,1395.843C1278.344,1395.843 1386.938,1287.249 1386.938,1153.491C1386.938,1104.513 1372.101,942.758 1344.512,886.833C1341.278,880.444 1343.089,872.656 1348.81,868.349C1379.554,845.145 1469.444,777.47 1510.69,746.418C1516.375,742.138 1523.64,740.54 1530.596,742.042C1537.552,743.543 1543.511,747.994 1546.925,754.238C1600.499,852.294 1629.291,1057.003 1629.291,1153.491C1629.291,1421.006 1412.102,1638.195 1144.586,1638.195C877.071,1638.195 659.882,1421.006 659.882,1153.491C659.882,1057.003 688.674,852.294 742.271,754.251Z" style="fill:white;stroke:white;stroke-width:41.03px;"/>
            </g>
        </g>
        <g transform="matrix(0.863976,0.134291,-0.134291,0.863976,241.912614,-37.658977)">
            <g transform="matrix(0.678133,0,0,0.678133,145.475493,-129.840527)">
                <circle cx="800.471" cy="1265.55" r="64.572" style="fill:rgb(177,69,55);"/>
            </g>
        </g>
        <g transform="matrix(0.863976,0.134291,-0.134291,0.863976,241.912614,-37.658977)">
            <g transform="matrix(0.678133,0,0,0.678133,768.87359,-129.840527)">
                <circle cx="800.471" cy="1265.55" r="64.572" style="fill:rgb(177,69,55);"/>
            </g>
        </g>
        <g transform="matrix(0.863976,0.134291,-0.134291,0.863976,241.912614,-37.658977)">
            <g transform="matrix(0.678133,0,0,0.678133,793.662051,62.43902)">
                <circle cx="800.471" cy="1265.55" r="64.572" style="fill:rgb(177,69,55);"/>
            </g>
        </g>
        <g transform="matrix(0.863976,0.134291,-0.134291,0.863976,241.912614,-37.658977)">
            <g transform="matrix(0.678133,0,0,0.678133,120.687031,62.43902)">
                <circle cx="800.471" cy="1265.55" r="64.572" style="fill:rgb(177,69,55);"/>
            </g>
        </g>
        <g transform="matrix(0.863976,0.134291,-0.134291,0.863976,241.912614,-37.658977)">
            <g transform="matrix(0.678133,0,0,0.678133,765.87359,255.72146)">
                <circle cx="800.471" cy="1265.55" r="64.572" style="fill:rgb(177,69,55);"/>
            </g>
        </g>
        <g transform="matrix(0.863976,0.134291,-0.134291,0.863976,241.912614,-37.658977)">
            <g transform="matrix(0.678133,0,0,0.678133,148.475493,255.72146)">
                <circle cx="800.471" cy="1265.55" r="64.572" style="fill:rgb(177,69,55);"/>
            </g>
        </g>
    </g>
</svg>
